<?xml version="1.0" encoding="UTF-8"?>
<svg width="432" height="432" viewBox="0 0 432 432" xmlns="http://www.w3.org/2000/svg">
  <defs>
    <linearGradient id="fgFruit" x1="0%" y1="15%" x2="100%" y2="85%">
      <stop offset="0%" stop-color="#FF6B6B" />
      <stop offset="100%" stop-color="#FF8A3D" />
    </linearGradient>
    <radialGradient id="highlight" cx="38%" cy="30%" r="70%">
      <stop offset="0%" stop-color="#FFFFFF" stop-opacity="0.55" />
      <stop offset="45%" stop-color="#FFFFFF" stop-opacity="0.1" />
      <stop offset="100%" stop-color="#FFFFFF" stop-opacity="0" />
    </radialGradient>
    <linearGradient id="leafFg" x1="0%" y1="0%" x2="100%" y2="100%">
      <stop offset="0%" stop-color="#7DECA4" />
      <stop offset="100%" stop-color="#2F9B5E" />
    </linearGradient>
  </defs>

  <g transform="translate(36 36)">
    <circle cx="180" cy="180" r="180" fill="url(#fgFruit)" />
    <circle cx="180" cy="180" r="150" fill="url(#highlight)" />

    <path d="M150 42c-18-20-48-22-68-4 24 4 42 16 52 34z" fill="#EFFCE9" opacity="0.35" />
    <path d="M210 42c18-20 48-22 68-4-24 4-42 16-52 34z" fill="#1C7C4D" opacity="0.38" />

    <path d="M164 60c9-23 37-31 57-16 11 8 17 21 17 36-23 7-49 7-74 0z" fill="#3E1C3E" opacity="0.35" />

    <path d="M208 40c-12-10-29-10-41 0l-26 26c28 9 58 9 86 0z" fill="#FFFFFF" opacity="0.08" />

    <g transform="translate(150 20)">
      <path d="M28 0C12 16 4 36 8 58c21-6 38-21 46-40z" fill="url(#leafFg)" />
      <path d="M56 18C44 38 24 52 3 54c-6-21 3-41 17-58 12 12 22 20 36 22z" fill="#1B6D45" opacity="0.35" />
    </g>

    <circle cx="180" cy="210" r="108" fill="#FFFFFF" opacity="0.08" />

    <path d="M180 132c-9 0-16 7-16 16v92c0 8 7 15 16 15s16-7 16-15v-58l56 30c7 4 16 1 20-6 4-7 1-16-6-20l-68-36c-5-2-11-4-18-4z" fill="#FFFFFF" />

    <circle cx="128" cy="216" r="28" fill="#FFFFFF" opacity="0.12" />
    <circle cx="244" cy="252" r="22" fill="#FFFFFF" opacity="0.12" />
  </g>
</svg>
